<mxfile host="Electron" modified="2023-05-25T20:59:52.921Z" agent="Mozilla/5.0 (Macintosh; Intel Mac OS X 10_15_7) AppleWebKit/537.36 (KHTML, like Gecko) draw.io/21.1.2 Chrome/106.0.5249.199 Electron/21.4.3 Safari/537.36" etag="cgCMQBO1Ev3x40FhRYKC" version="21.1.2" type="device">
  <diagram name="Page-1" id="b5b7bab2-c9e2-2cf4-8b2a-24fd1a2a6d21">
    <mxGraphModel dx="554" dy="645" grid="1" gridSize="10" guides="1" tooltips="1" connect="1" arrows="1" fold="1" page="1" pageScale="1" pageWidth="827" pageHeight="1169" background="none" math="0" shadow="0">
      <root>
        <mxCell id="0" />
        <mxCell id="1" parent="0" />
        <mxCell id="_EsRxaXNr39jAv2G4_3R-1" value="회사 회원" style="shape=umlActor;verticalLabelPosition=bottom;verticalAlign=top;html=1;" parent="1" vertex="1">
          <mxGeometry x="75" y="395" width="30" height="60" as="geometry" />
        </mxCell>
        <mxCell id="Xb1e7kF9UDghLhpTketb-2" value=":AddRecruit UI" style="rounded=0;whiteSpace=wrap;html=1;" parent="1" vertex="1">
          <mxGeometry x="170" y="555" width="120" height="60" as="geometry" />
        </mxCell>
        <mxCell id="bZW9feNbAllSj9TjUGjz-1" value=":AddRecruit" style="whiteSpace=wrap;html=1;" parent="1" vertex="1">
          <mxGeometry x="170" y="740.5" width="120" height="60" as="geometry" />
        </mxCell>
        <mxCell id="bZW9feNbAllSj9TjUGjz-7" value="" style="endArrow=none;html=1;rounded=0;entryX=0.5;entryY=0;entryDx=0;entryDy=0;exitX=0.5;exitY=0.817;exitDx=0;exitDy=0;exitPerimeter=0;" parent="1" source="_EsRxaXNr39jAv2G4_3R-1" target="Xb1e7kF9UDghLhpTketb-2" edge="1">
          <mxGeometry width="50" height="50" relative="1" as="geometry">
            <mxPoint x="210" y="535" as="sourcePoint" />
            <mxPoint x="260" y="485" as="targetPoint" />
          </mxGeometry>
        </mxCell>
        <mxCell id="bZW9feNbAllSj9TjUGjz-8" value="" style="endArrow=none;html=1;rounded=0;entryX=0.5;entryY=0;entryDx=0;entryDy=0;exitX=0.5;exitY=1;exitDx=0;exitDy=0;" parent="1" source="Xb1e7kF9UDghLhpTketb-2" target="bZW9feNbAllSj9TjUGjz-1" edge="1">
          <mxGeometry width="50" height="50" relative="1" as="geometry">
            <mxPoint x="305" y="715" as="sourcePoint" />
            <mxPoint x="90" y="725" as="targetPoint" />
          </mxGeometry>
        </mxCell>
        <mxCell id="bZW9feNbAllSj9TjUGjz-10" value="" style="endArrow=classic;html=1;rounded=0;" parent="1" edge="1">
          <mxGeometry width="50" height="50" relative="1" as="geometry">
            <mxPoint x="140" y="466" as="sourcePoint" />
            <mxPoint x="210" y="526" as="targetPoint" />
            <Array as="points" />
          </mxGeometry>
        </mxCell>
        <mxCell id="bZW9feNbAllSj9TjUGjz-18" value="" style="endArrow=classic;html=1;rounded=0;" parent="1" edge="1">
          <mxGeometry width="50" height="50" relative="1" as="geometry">
            <mxPoint x="250" y="645" as="sourcePoint" />
            <mxPoint x="250" y="705" as="targetPoint" />
          </mxGeometry>
        </mxCell>
        <mxCell id="bZW9feNbAllSj9TjUGjz-21" value="새로운 채용정보 등록하기" style="shape=umlFrame;whiteSpace=wrap;html=1;pointerEvents=0;width=160;height=20;" parent="1" vertex="1">
          <mxGeometry x="10" y="370" width="470" height="540" as="geometry" />
        </mxCell>
        <mxCell id="K71paMH0ZI0jcNfA3QA--1" value=":Recruit" style="whiteSpace=wrap;html=1;" parent="1" vertex="1">
          <mxGeometry x="310" y="835" width="140" height="60" as="geometry" />
        </mxCell>
        <mxCell id="K71paMH0ZI0jcNfA3QA--7" value="" style="endArrow=classic;html=1;rounded=0;" parent="1" edge="1">
          <mxGeometry width="50" height="50" relative="1" as="geometry">
            <mxPoint x="220" y="695" as="sourcePoint" />
            <mxPoint x="220" y="625" as="targetPoint" />
          </mxGeometry>
        </mxCell>
        <mxCell id="K71paMH0ZI0jcNfA3QA--8" value="1. addRecruit()" style="text;html=1;align=center;verticalAlign=middle;resizable=0;points=[];autosize=1;strokeColor=none;fillColor=none;" parent="1" vertex="1">
          <mxGeometry x="160" y="460" width="100" height="30" as="geometry" />
        </mxCell>
        <mxCell id="K71paMH0ZI0jcNfA3QA--27" value="회사 회원" style="shape=umlActor;verticalLabelPosition=bottom;verticalAlign=top;html=1;" parent="1" vertex="1">
          <mxGeometry x="580" y="400" width="30" height="60" as="geometry" />
        </mxCell>
        <mxCell id="K71paMH0ZI0jcNfA3QA--28" value=":ShowRecruit UI" style="rounded=0;whiteSpace=wrap;html=1;" parent="1" vertex="1">
          <mxGeometry x="695" y="552.5" width="120" height="60" as="geometry" />
        </mxCell>
        <mxCell id="K71paMH0ZI0jcNfA3QA--29" value=":ShowRecruit" style="whiteSpace=wrap;html=1;" parent="1" vertex="1">
          <mxGeometry x="695" y="712.5" width="120" height="60" as="geometry" />
        </mxCell>
        <mxCell id="K71paMH0ZI0jcNfA3QA--30" value="" style="endArrow=none;html=1;rounded=0;entryX=0.5;entryY=0;entryDx=0;entryDy=0;exitX=0.5;exitY=0.817;exitDx=0;exitDy=0;exitPerimeter=0;" parent="1" target="K71paMH0ZI0jcNfA3QA--28" edge="1">
          <mxGeometry width="50" height="50" relative="1" as="geometry">
            <mxPoint x="615" y="441.52" as="sourcePoint" />
            <mxPoint x="785" y="482.5" as="targetPoint" />
          </mxGeometry>
        </mxCell>
        <mxCell id="K71paMH0ZI0jcNfA3QA--31" value="" style="endArrow=none;html=1;rounded=0;entryX=0.5;entryY=0;entryDx=0;entryDy=0;exitX=0.5;exitY=1;exitDx=0;exitDy=0;" parent="1" source="K71paMH0ZI0jcNfA3QA--28" target="K71paMH0ZI0jcNfA3QA--29" edge="1">
          <mxGeometry width="50" height="50" relative="1" as="geometry">
            <mxPoint x="830" y="712.5" as="sourcePoint" />
            <mxPoint x="615" y="722.5" as="targetPoint" />
          </mxGeometry>
        </mxCell>
        <mxCell id="K71paMH0ZI0jcNfA3QA--32" value="" style="endArrow=classic;html=1;rounded=0;" parent="1" edge="1">
          <mxGeometry width="50" height="50" relative="1" as="geometry">
            <mxPoint x="655" y="442.5" as="sourcePoint" />
            <mxPoint x="725" y="502.5" as="targetPoint" />
            <Array as="points" />
          </mxGeometry>
        </mxCell>
        <mxCell id="K71paMH0ZI0jcNfA3QA--33" value="" style="endArrow=classic;html=1;rounded=0;" parent="1" edge="1">
          <mxGeometry width="50" height="50" relative="1" as="geometry">
            <mxPoint x="775" y="642.5" as="sourcePoint" />
            <mxPoint x="775" y="702.5" as="targetPoint" />
          </mxGeometry>
        </mxCell>
        <mxCell id="K71paMH0ZI0jcNfA3QA--35" value="채용정보 조회하기" style="shape=umlFrame;whiteSpace=wrap;html=1;pointerEvents=0;width=160;height=20;" parent="1" vertex="1">
          <mxGeometry x="530" y="370" width="470" height="540" as="geometry" />
        </mxCell>
        <mxCell id="K71paMH0ZI0jcNfA3QA--36" value=":Recruit" style="whiteSpace=wrap;html=1;" parent="1" vertex="1">
          <mxGeometry x="835" y="832.5" width="120" height="60" as="geometry" />
        </mxCell>
        <mxCell id="K71paMH0ZI0jcNfA3QA--38" value="" style="endArrow=none;html=1;rounded=0;entryX=0.5;entryY=0;entryDx=0;entryDy=0;exitX=1;exitY=1;exitDx=0;exitDy=0;" parent="1" source="K71paMH0ZI0jcNfA3QA--29" target="K71paMH0ZI0jcNfA3QA--36" edge="1">
          <mxGeometry width="50" height="50" relative="1" as="geometry">
            <mxPoint x="755" y="682.5" as="sourcePoint" />
            <mxPoint x="805" y="632.5" as="targetPoint" />
          </mxGeometry>
        </mxCell>
        <mxCell id="K71paMH0ZI0jcNfA3QA--42" value="" style="endArrow=classic;html=1;rounded=0;" parent="1" edge="1">
          <mxGeometry width="50" height="50" relative="1" as="geometry">
            <mxPoint x="745" y="692.5" as="sourcePoint" />
            <mxPoint x="745" y="622.5" as="targetPoint" />
          </mxGeometry>
        </mxCell>
        <mxCell id="K71paMH0ZI0jcNfA3QA--43" value="1. showRecruit()" style="text;html=1;align=center;verticalAlign=middle;resizable=0;points=[];autosize=1;strokeColor=none;fillColor=none;" parent="1" vertex="1">
          <mxGeometry x="685" y="437.5" width="110" height="30" as="geometry" />
        </mxCell>
        <mxCell id="K71paMH0ZI0jcNfA3QA--61" value="1.1.1 : getrecruitlist()" style="text;html=1;align=center;verticalAlign=middle;resizable=0;points=[];autosize=1;strokeColor=none;fillColor=none;" parent="1" vertex="1">
          <mxGeometry x="870" y="770.5" width="130" height="30" as="geometry" />
        </mxCell>
        <mxCell id="K71paMH0ZI0jcNfA3QA--260" value="" style="endArrow=classic;html=1;rounded=0;" parent="1" edge="1">
          <mxGeometry width="50" height="50" relative="1" as="geometry">
            <mxPoint x="855" y="785" as="sourcePoint" />
            <mxPoint x="910" y="815" as="targetPoint" />
            <Array as="points" />
          </mxGeometry>
        </mxCell>
        <mxCell id="EixyRkAgwoJFA63Q9zNU-69" value="" style="endArrow=none;html=1;rounded=0;entryX=0;entryY=0.5;entryDx=0;entryDy=0;exitX=0.75;exitY=1;exitDx=0;exitDy=0;" parent="1" source="bZW9feNbAllSj9TjUGjz-1" target="K71paMH0ZI0jcNfA3QA--1" edge="1">
          <mxGeometry width="50" height="50" relative="1" as="geometry">
            <mxPoint x="180" y="865" as="sourcePoint" />
            <mxPoint x="194" y="786" as="targetPoint" />
          </mxGeometry>
        </mxCell>
        <mxCell id="EixyRkAgwoJFA63Q9zNU-70" value="1.1.1 insertNewRecruit()" style="text;html=1;align=center;verticalAlign=middle;resizable=0;points=[];autosize=1;strokeColor=none;fillColor=none;" parent="1" vertex="1">
          <mxGeometry x="280.5" y="790" width="150" height="30" as="geometry" />
        </mxCell>
        <mxCell id="OpeE6zxOzzpMG_I_0L6V-6" value="" style="endArrow=classic;html=1;rounded=0;exitX=0.925;exitY=1.058;exitDx=0;exitDy=0;exitPerimeter=0;entryX=0;entryY=0;entryDx=0;entryDy=0;" parent="1" source="bZW9feNbAllSj9TjUGjz-1" target="K71paMH0ZI0jcNfA3QA--1" edge="1">
          <mxGeometry width="50" height="50" relative="1" as="geometry">
            <mxPoint x="164.5" y="795" as="sourcePoint" />
            <mxPoint x="140" y="825" as="targetPoint" />
          </mxGeometry>
        </mxCell>
        <mxCell id="ZU0NuVu_DH9FHkmJMMa6-1" value="1.1 addNewRecruit()" style="text;html=1;align=center;verticalAlign=middle;resizable=0;points=[];autosize=1;strokeColor=none;fillColor=none;" parent="1" vertex="1">
          <mxGeometry x="270" y="642.5" width="130" height="30" as="geometry" />
        </mxCell>
        <mxCell id="ZU0NuVu_DH9FHkmJMMa6-2" value="1.1 showRecruitDetail()" style="text;html=1;align=center;verticalAlign=middle;resizable=0;points=[];autosize=1;strokeColor=none;fillColor=none;" parent="1" vertex="1">
          <mxGeometry x="790" y="642.5" width="150" height="30" as="geometry" />
        </mxCell>
      </root>
    </mxGraphModel>
  </diagram>
</mxfile>
